<svg xmlns="http://www.w3.org/2000/svg" width="40" height="40" viewBox="0 0 40 40">
<defs>
    <style>
      .cls-1 {
        fill: #fff;
        fill-rule: evenodd;
      }
    </style>
  </defs>
  <path class="cls-1" d="M20.035,18.126a6.627,6.627,0,1,1,6.52-6.626A6.581,6.581,0,0,1,20.035,18.126Zm0-10.733A4.108,4.108,0,1,0,24.077,11.5,4.079,4.079,0,0,0,20.035,7.393ZM30.856,11.5a7,7,0,0,1-2.012,4.926l-1.615-1.642a4.694,4.694,0,0,0,0-6.568l1.615-1.642A7.007,7.007,0,0,1,30.856,11.5h0Zm1.224-8.215a11.751,11.751,0,0,1,0,16.429l-1.616-1.643a9.4,9.4,0,0,0,0-13.143l1.616-1.642h0Zm6.662,14.545A16.218,16.218,0,0,1,35.312,23h0L33.7,21.358a14.1,14.1,0,0,0,0-19.716L35.312,0a16.215,16.215,0,0,1,3.429,5.169,16.553,16.553,0,0,1,0,12.662v0h0ZM9.145,11.5a7.006,7.006,0,0,1,2.012-4.927l1.615,1.642a4.694,4.694,0,0,0,0,6.568l-1.615,1.642A7,7,0,0,1,9.145,11.5h0ZM7.921,3.286L9.537,4.929a9.4,9.4,0,0,0,0,13.143L7.921,19.715a11.751,11.751,0,0,1,0-16.429h0ZM1.259,17.832v0a16.547,16.547,0,0,1,0-12.662A16.214,16.214,0,0,1,4.688,0L6.3,1.642a14.1,14.1,0,0,0,0,19.716L4.688,23h0a16.217,16.217,0,0,1-3.429-5.169h0Z" transform="translate(0 8.5)"/>
</svg>
