<svg xmlns="http://www.w3.org/2000/svg" width="40" height="40" viewBox="0 0 40 40">
<defs>
    <style>
      .cls-1 {
        fill: #fff;
        fill-rule: evenodd;
      }
    </style>
  </defs>
  <path class="cls-1" d="M1.417,26.7a1.41,1.41,0,0,1-1.4-1.415V4.9a1.4,1.4,0,1,1,2.809,0V25.28A1.41,1.41,0,0,1,1.417,26.7ZM27.478,6.315H1.417a1.415,1.415,0,0,1,0-2.831H27.478A1.415,1.415,0,0,1,27.478,6.315ZM37.59,26.7a1.41,1.41,0,0,1-1.4-1.415V6.616a1.4,1.4,0,1,1,2.809,0V25.28A1.41,1.41,0,0,1,37.59,26.7ZM26.355,35h-13.7a1.415,1.415,0,0,1,0-2.831h13.7A1.415,1.415,0,0,1,26.355,35Zm-13.7,0a1.41,1.41,0,0,1-1.4-1.415v-8.3a1.4,1.4,0,1,1,2.809,0v8.3A1.41,1.41,0,0,1,12.651,35Zm0-8.3H1.417a1.415,1.415,0,0,1,0-2.831H12.651A1.415,1.415,0,0,1,12.651,26.7Zm13.7,8.3a1.41,1.41,0,0,1-1.4-1.415v-8.3a1.4,1.4,0,1,1,2.809,0v8.3A1.41,1.41,0,0,1,26.355,35ZM37.59,26.7H26.355a1.415,1.415,0,0,1,0-2.831H37.59A1.415,1.415,0,0,1,37.59,26.7Zm-8.551-6.133a5.616,5.616,0,1,1,5.571-5.615A5.6,5.6,0,0,1,29.038,20.562Zm0-8.4A2.785,2.785,0,1,0,31.8,14.947,2.778,2.778,0,0,0,29.038,12.161Zm-19.071,8.4a5.616,5.616,0,1,1,5.572-5.615A5.6,5.6,0,0,1,9.968,20.562Zm0-8.4a2.785,2.785,0,1,0,2.764,2.786A2.778,2.778,0,0,0,9.968,12.161ZM37.59,3.59a1.41,1.41,0,0,1-1.4-1.415V1.42a1.4,1.4,0,1,1,2.809,0V2.175A1.41,1.41,0,0,1,37.59,3.59Z" transform="translate(0.5 2.5)"/>
</svg>
