<svg xmlns="http://www.w3.org/2000/svg" width="40" height="40" viewBox="0 0 40 40">
<defs>
    <style>
      .cls-1 {
        fill: #fff;
        fill-rule: evenodd;
      }
    </style>
  </defs>
  <path class="cls-1" d="M19.47,10.156A10.538,10.538,0,1,0,30.1,20.692,10.6,10.6,0,0,0,19.47,10.156h0Zm0,18.613a8.053,8.053,0,1,1,8.121-8.052,8.09,8.09,0,0,1-8.12,8.052h0ZM19.59,4.78a1.242,1.242,0,1,0,0,2.484A13.042,13.042,0,0,1,32.675,20.238a1.253,1.253,0,0,0,2.506,0A15.566,15.566,0,0,0,19.59,4.78h0Zm0-4.78a1.243,1.243,0,1,0,0,2.485,17.839,17.839,0,0,1,17.9,17.753,1.253,1.253,0,0,0,2.506,0A20.349,20.349,0,0,0,19.59,0h0ZM9.229,12.234a1.282,1.282,0,0,0,.891.359,1.327,1.327,0,0,0,.892-0.359,1.211,1.211,0,0,0,0-1.744L7.615,7.1a1.237,1.237,0,0,0-1.76,0,1.212,1.212,0,0,0,0,1.744l3.374,3.393h0ZM29.663,29.2a1.236,1.236,0,0,0-1.759,0,1.211,1.211,0,0,0,0,1.744l3.4,3.394a1.283,1.283,0,0,0,.891.358,1.326,1.326,0,0,0,.891-0.358,1.212,1.212,0,0,0,0-1.745L29.663,29.2h0Zm-20.6-.048L5.639,32.52a1.213,1.213,0,0,0,0,1.745,1.283,1.283,0,0,0,.892.359,1.327,1.327,0,0,0,.891-0.359L10.844,30.9a1.213,1.213,0,0,0,0-1.744,1.289,1.289,0,0,0-1.784,0h0Zm10.217,3.584h0a1.239,1.239,0,0,0-1.252,1.243L18,38.757A1.24,1.24,0,0,0,19.253,40h0a1.24,1.24,0,0,0,1.253-1.243l0.024-4.778a1.239,1.239,0,0,0-1.253-1.243h0ZM6.072,21.983a1.243,1.243,0,1,0,0-2.485l-4.82-.024h0a1.242,1.242,0,1,0,0,2.485l4.82,0.024h0Z"/>
</svg>
