<svg xmlns="http://www.w3.org/2000/svg" width="40" height="31" viewBox="0 0 40 31">
<defs>
    <style>
      .cls-1 {
        fill: #fff;
        fill-rule: evenodd;
      }
    </style>
  </defs>
  <path class="cls-1" d="M19.566,8.845a8.734,8.734,0,1,0,8.713,8.733,8.733,8.733,0,0,0-8.713-8.733h0Zm0,14.63a5.9,5.9,0,1,1,5.883-5.9,5.9,5.9,0,0,1-5.883,5.9h0ZM33.941,4.348H28.279A4.279,4.279,0,0,0,24.033,0H16.956A4.279,4.279,0,0,0,12.71,4.348H8.285V2.9a1.388,1.388,0,1,0-2.776,0V4.348H4.218A4.21,4.21,0,0,0,0,8.579V27.021A4,4,0,0,0,4.218,31H33.941A3.87,3.87,0,0,0,38,27.021V8.579a4.079,4.079,0,0,0-4.059-4.231h0Zm1.283,22.673a1.135,1.135,0,0,1-1.283,1.2H4.218a1.268,1.268,0,0,1-1.441-1.2V8.579A1.505,1.505,0,0,1,4.218,7.087h9.908a1.21,1.21,0,0,0,1.231-1.346V4.323a1.7,1.7,0,0,1,1.6-1.54h7.077a1.469,1.469,0,0,1,1.344,1.54V5.741a1.419,1.419,0,0,0,1.487,1.346h7.077a1.377,1.377,0,0,1,1.283,1.492V27.021Zm0,0" transform="translate(1)"/>
</svg>
