<svg xmlns="http://www.w3.org/2000/svg" width="40" height="40" viewBox="0 0 40 40">
<defs>
    <style>
      .cls-1 {
        fill: #fff;
        fill-rule: evenodd;
      }
    </style>
  </defs>
  <path class="cls-1" d="M24.838,24.415H1.162a1.18,1.18,0,0,1,0-2.36H24.838A1.18,1.18,0,0,1,24.838,24.415ZM7.1,37.3a1.171,1.171,0,0,1-1.163-1.18V27.734a1.163,1.163,0,1,1,2.326,0v8.385A1.171,1.171,0,0,1,7.1,37.3ZM18.334,40a1.171,1.171,0,0,1-1.163-1.18V27.734a1.163,1.163,0,1,1,2.326,0V38.819A1.172,1.172,0,0,1,18.334,40ZM5.466,23.234V17.141a7.359,7.359,0,1,1,14.716,0v6.093H22.4V17.141a9.657,9.657,0,0,0-9.575-9.715,9.658,9.658,0,0,0-9.576,9.715v6.093H5.466Zm7.026,0.318a1.172,1.172,0,0,1-1.163-1.18V20.46a1.163,1.163,0,1,1,2.326,0v1.912A1.171,1.171,0,0,1,12.491,23.552Zm0-1.912a1.158,1.158,0,0,1-1-.57l-2.41-4.048a1.189,1.189,0,0,1,.394-1.62,1.153,1.153,0,0,1,1.6.4l2.41,4.048a1.189,1.189,0,0,1-.394,1.62A1.145,1.145,0,0,1,12.492,21.64Zm0,0a1.151,1.151,0,0,1-.822-0.346,1.192,1.192,0,0,1,0-1.669l1.926-1.954a1.151,1.151,0,0,1,1.645,0,1.192,1.192,0,0,1,0,1.669l-1.926,1.953A1.151,1.151,0,0,1,12.491,21.64Zm12.346,6.374H1.162a1.18,1.18,0,0,1,0-2.36H24.838A1.18,1.18,0,0,1,24.838,28.015Zm-23.676,0A1.172,1.172,0,0,1,0,26.835v-3.6a1.172,1.172,0,0,1,1.163-1.18,1.172,1.172,0,0,1,1.163,1.18v3.6A1.172,1.172,0,0,1,1.162,28.015Zm23.676,0a1.172,1.172,0,0,1-1.163-1.18v-3.6a1.163,1.163,0,1,1,2.326,0v3.6A1.172,1.172,0,0,1,24.838,28.015ZM12.824,6.109a1.172,1.172,0,0,1-1.163-1.18V1.18a1.163,1.163,0,1,1,2.326,0V4.929A1.172,1.172,0,0,1,12.824,6.109Zm8.846,4.265a1.151,1.151,0,0,1-.822-0.346,1.192,1.192,0,0,1,0-1.669L23.46,5.708a1.151,1.151,0,0,1,1.645,0,1.192,1.192,0,0,1,0,1.669l-2.613,2.652A1.15,1.15,0,0,1,21.669,10.373Zm-17.574,0a1.151,1.151,0,0,1-.822-0.346L0.659,7.376a1.192,1.192,0,0,1,0-1.669,1.151,1.151,0,0,1,1.645,0L4.917,8.359a1.192,1.192,0,0,1,0,1.669A1.151,1.151,0,0,1,4.095,10.373Z" transform="translate(7)"/>
</svg>
