<svg xmlns="http://www.w3.org/2000/svg" width="40" height="31" viewBox="0 0 40 31">
<defs>
    <style>
      .cls-1 {
        fill: #fff;
        fill-rule: evenodd;
      }
    </style>
  </defs>
  <path class="cls-1" d="M27.919,28.985s-1.666.247-1.345-1.288a3.869,3.869,0,0,1,1.345-1.343,9.321,9.321,0,0,0,2.689-4.44,22.136,22.136,0,0,0,1.023-6.907,21.955,21.955,0,0,0-1.023-6.879A9.421,9.421,0,0,0,27.919,3.66a3.057,3.057,0,0,1-1.345-1.343A1,1,0,0,1,27.539,1l0.38,0.028c1.783,0.795,3.216,2.494,4.356,5.1A21.937,21.937,0,0,1,34,15.007a21.938,21.938,0,0,1-1.725,8.881c-1.14,2.6-2.573,4.3-4.356,5.1h0Zm-3.362-2.22a1.147,1.147,0,0,1-1.345-1.288,4,4,0,0,1,1.345-1.644c1.637-1.836,2.689-5.125,2.689-8.826s-1.053-6.989-2.689-8.826a4.859,4.859,0,0,1-1.345-1.644,1.029,1.029,0,0,1,1.2-1.288h0.146A9.587,9.587,0,0,1,28.212,7.8a17.833,17.833,0,0,1,1.4,7.208,17.835,17.835,0,0,1-1.4,7.209,9.589,9.589,0,0,1-3.654,4.55h0Zm-4.064-1.973c0.029,0-1.871.466-1.666-1.37A5.714,5.714,0,0,1,20.494,21.8c1.579-1.48,2.368-3.7,2.368-6.633S22.1,9.69,20.494,8.237c0.029,0-1.7-1.233-1.666-1.645a1.2,1.2,0,0,1,1.52-1.4L20.494,5.25a9.442,9.442,0,0,1,3.421,4,12.524,12.524,0,0,1,1.316,5.756,12.721,12.721,0,0,1-1.316,5.783,9.786,9.786,0,0,1-3.421,4h0Zm-3.713-2.33c0.058-.028-1.783.548-1.666-1.1a6.962,6.962,0,0,1,1.666-1.974,6.915,6.915,0,0,0,0-9.072q-1.666-1.48-1.666-1.973a1.069,1.069,0,0,1,1.491-1.178l0.175,0.055a9.3,9.3,0,0,1,4.064,7.647,9.207,9.207,0,0,1-4.064,7.592h0ZM12.4,20a0.546,0.546,0,0,0-.146.027,1.113,1.113,0,0,1-1.2-1.206A1.6,1.6,0,0,1,12.4,17.583a3.087,3.087,0,0,0,0-5.482s-1.345-.192-1.345-1.206A1.107,1.107,0,0,1,12.074,9.69H12.4a5.482,5.482,0,0,1,4.063,5.18,5.037,5.037,0,0,1-1.14,3.207A5.454,5.454,0,0,1,12.4,20h0ZM5.38,27.862H5v-2.22H5.935a1.7,1.7,0,0,0,1.754-1.617v-6L5,18.872V10.731l2.689,0.822V6.318A1.685,1.685,0,0,0,5.935,4.7H5V2.481H5.38A4.246,4.246,0,0,1,8.42,3.66,3.817,3.817,0,0,1,9.706,6.538V23.805A3.76,3.76,0,0,1,8.42,26.656a4.269,4.269,0,0,1-3.04,1.206h0Zm0,0" transform="translate(0.5 0.5)"/>
</svg>
