<svg xmlns="http://www.w3.org/2000/svg" width="40" height="40" viewBox="0 0 40 40">
<defs>
    <style>
      .cls-1 {
        fill: #fff;
        fill-rule: evenodd;
      }
    </style>
  </defs>
  <path class="cls-1" d="M6.436,10.385a3.942,3.942,0,1,1,3.879-4.469l2.509-.18a6.429,6.429,0,1,0-6.389,7.151c0.041,0,.081-0.005.122-0.006l-0.1-2.5ZM29.668,5.918a3.932,3.932,0,1,1,3.879,4.469L33.378,12.9A6.443,6.443,0,1,0,27.2,5.572c-0.006.041-.006,0.081-0.011,0.122l2.483,0.25C29.668,5.936,29.667,5.927,29.668,5.918Zm3.9,21.7a3.942,3.942,0,1,1-3.879,4.469l-2.509.18a6.429,6.429,0,1,0,6.388-7.151c-0.041,0-.081.005-0.122,0.006l0.1,2.5ZM10.331,32.081a3.933,3.933,0,1,1-3.879-4.469L6.622,25.1A6.443,6.443,0,1,0,12.8,32.427c0.006-.041.006-0.081,0.011-0.122l-2.482-.25C10.331,32.064,10.333,32.072,10.331,32.081Zm15.241-6.567H14.125a2.054,2.054,0,0,1-2.05-2.054V13.539a2.054,2.054,0,0,1,2.05-2.054H25.573a2.054,2.054,0,0,1,2.049,2.054V23.46A2.054,2.054,0,0,1,25.573,25.514Zm-11-2.5H25.125V13.988H14.572v9.023Zm7.337-2.353h-4.12v-4.13h4.12v4.13Zm-9.163-6.923L5.237,6.791,6.8,5.1,14.3,12.041ZM8.16,6.443a1.7,1.7,0,1,1-1.7-1.706A1.7,1.7,0,0,1,8.16,6.443ZM27.1,13.735l7.508-6.945L33.049,5.1l-7.508,6.945Zm4.585-7.292a1.7,1.7,0,1,0,1.7-1.706A1.7,1.7,0,0,0,31.686,6.443ZM12.624,23.457l-7.163,7.3L7.1,32.376l7.163-7.3ZM8.4,30.964A1.7,1.7,0,1,0,6.779,32.75,1.7,1.7,0,0,0,8.4,30.964Zm18.655-7.356,7.222,7.243-1.627,1.63-7.222-7.243Zm4.287,7.472a1.7,1.7,0,1,1,1.632,1.774A1.7,1.7,0,0,1,31.339,31.08Z" transform="translate(0 1)"/>
</svg>
