<svg xmlns="http://www.w3.org/2000/svg" width="40" height="40" viewBox="0 0 40 40">
<defs>
    <style>
      .cls-1 {
        fill: #fff;
        fill-rule: evenodd;
      }
    </style>
  </defs>
  <path class="cls-1" d="M8.682,21.852v-6.7h2.845a4.852,4.852,0,0,1,1.56.181,1.542,1.542,0,0,1,.778.642,1.933,1.933,0,0,1,.292,1.056,1.791,1.791,0,0,1-.443,1.247,2.126,2.126,0,0,1-1.324.619,3.186,3.186,0,0,1,.724.563,7.7,7.7,0,0,1,.769,1.088L14.7,21.852H13.084l-0.977-1.459a9.39,9.39,0,0,0-.712-0.985,1.037,1.037,0,0,0-.406-0.279,2.222,2.222,0,0,0-.68-0.076H10.033v2.8H8.682Zm1.352-3.869h1a5.157,5.157,0,0,0,1.215-.082,0.726,0.726,0,0,0,.379-0.284,0.873,0.873,0,0,0,.137-0.5,0.8,0.8,0,0,0-.18-0.546,0.827,0.827,0,0,0-.509-0.263q-0.164-.023-0.986-0.023H10.033v1.7Zm8.512,1.4v-1.13h2.913v2.671a3.671,3.671,0,0,1-1.231.725,4.479,4.479,0,0,1-1.632.313,3.664,3.664,0,0,1-1.831-.441,2.809,2.809,0,0,1-1.174-1.262,4.089,4.089,0,0,1-.393-1.786,3.865,3.865,0,0,1,.438-1.861,2.96,2.96,0,0,1,1.283-1.248,3.463,3.463,0,0,1,1.6-.334,3.194,3.194,0,0,1,1.948.524,2.364,2.364,0,0,1,.9,1.447l-1.343.251a1.416,1.416,0,0,0-.532-0.779,1.6,1.6,0,0,0-.975-0.286,1.832,1.832,0,0,0-1.409.562,2.373,2.373,0,0,0-.522,1.669,2.63,2.63,0,0,0,.53,1.791,1.768,1.768,0,0,0,1.388.6,2.327,2.327,0,0,0,.851-0.167,2.924,2.924,0,0,0,.733-0.4V19.387H18.546Zm4.165-4.239h2.676a7.661,7.661,0,0,1,1.185.067,1.683,1.683,0,0,1,1.213.837,1.519,1.519,0,0,1,.206.784,1.588,1.588,0,0,1-.941,1.454,1.765,1.765,0,0,1,.941.608,1.617,1.617,0,0,1,.329,1.011,1.983,1.983,0,0,1-.213.889,1.787,1.787,0,0,1-.579.691,1.922,1.922,0,0,1-.907.318q-0.337.036-1.63,0.046H22.71v-6.7Zm1.352,1.116v1.55h0.886q0.79,0,.982-0.023a0.9,0.9,0,0,0,.546-0.24,0.711,0.711,0,0,0,.2-0.524,0.739,0.739,0,0,0-.171-0.5,0.776,0.776,0,0,0-.509-0.236q-0.2-.023-1.155-0.023H24.062Zm0,2.666v1.793h1.251a6.1,6.1,0,0,0,.927-0.041,0.838,0.838,0,0,0,.491-0.267,0.827,0.827,0,0,0,.189-0.57,0.879,0.879,0,0,0-.146-0.512,0.827,0.827,0,0,0-.423-0.306,4.577,4.577,0,0,0-1.2-.1H24.062ZM5.485,10.751a15.134,15.134,0,0,1,25.767-.419l3.3-1a18.475,18.475,0,0,0-32.348.425ZM16.01,33.5A15.176,15.176,0,0,1,3.956,14.251l-3.2-.965A18.519,18.519,0,0,0,16.01,36.878V33.5ZM32.9,13.8A15.174,15.174,0,0,1,19.8,33.647V37A18.52,18.52,0,0,0,36.1,12.83Z" transform="translate(1.5 1.5)"/>
</svg>
